# xmcd
#
# Track frame offsets:
#	150
#	13577
#	39071
#	55669
#
# Disc length: 959 seconds
#
# Revision: 0
# Processed by: cddbd v1.5.2PL0 Copyright (c) Steve Scherf et al.
# Submitted via: EasyCDDAExtractor 10.2.0.1
#
DISCID=2003bd04
DTITLE=Eden James - Together
DYEAR=1900
DGENRE=
TTITLE0=Now or never
TTITLE1=Never setting Sun
TTITLE2=halo
TTITLE3=now or never [radio edit]
EXTD=
EXTT0=
EXTT1=
EXTT2=
EXTT3=
PLAYORDER=
